nColumns=28
nRows=80
DataType=double
version=3
OpenSimVersion=4.1
endheader
time	ground_force_1_vx	ground_force_1_vy	ground_force_1_vz	ground_force_1_px	ground_force_1_py	ground_force_1_pz	ground_force_1_mx	ground_force_1_my	ground_force_1_mz	ground_force_2_vx	ground_force_2_vy	ground_force_2_vz	ground_force_2_px	ground_force_2_py	ground_force_2_pz	ground_force_2_mx	ground_force_2_my	ground_force_2_mz	ground_force_3_vx	ground_force_3_vy	ground_force_3_vz	ground_force_3_px	ground_force_3_py	ground_force_3_pz	ground_force_3_mx	ground_force_3_my	ground_force_3_mz
0	0.00847327	399.535	-26.5564	-0.227766	0.006	-0.451535	0	-1.5891	0	0.100093	216.612	29.8958	-0.212881	0.006	-0.771372	0	1.16551	0	0	0	0	0	0	0	0	0	0
0.01	0.0752857	399.447	-26.3497	-0.227784	0.006	-0.451485	0	-1.60489	0	0.0355484	217.273	30.0553	-0.212561	0.006	-0.771566	0	1.16877	0	0	0	0	0	0	0	0	0	0
0.02	0.148549	399.234	-26.1019	-0.227808	0.006	-0.451444	0	-1.62227	0	-0.0713908	218.082	30.242	-0.212125	0.006	-0.771771	0	1.17295	0	0	0	0	0	0	0	0	0	0
0.03	0.22849	398.863	-25.8111	-0.227838	0.006	-0.451415	0	-1.64103	0	-0.228138	219.047	30.4566	-0.211557	0.006	-0.771981	0	1.17841	0	0	0	0	0	0	0	0	0	0
0.04	0.316199	398.304	-25.4762	-0.227876	0.006	-0.451401	0	-1.66094	0	-0.441772	220.175	30.6997	-0.210846	0.006	-0.772195	0	1.18557	0	0	0	0	0	0	0	0	0	0
0.05	0.412868	397.53	-25.0972	-0.227922	0.006	-0.451402	0	-1.68165	0	-0.71959	221.469	30.9712	-0.209983	0.006	-0.772413	0	1.19488	0	0	0	0	0	0	0	0	0	0
0.06	0.519829	396.515	-24.6757	-0.227978	0.006	-0.451419	0	-1.7026	0	-1.06882	222.923	31.27	-0.208963	0.006	-0.772638	0	1.20684	0	0	0	0	0	0	0	0	0	0
0.07	0.638811	395.233	-24.214	-0.228048	0.006	-0.451454	0	-1.72299	0	-1.49558	224.524	31.5942	-0.207784	0.006	-0.772869	0	1.22207	0	0	0	0	0	0	0	0	0	0
0.08	0.771579	393.659	-23.7156	-0.228136	0.006	-0.451504	0	-1.74171	0	-2.00361	226.248	31.9414	-0.206451	0.006	-0.773109	0	1.24116	0	0	0	0	0	0	0	0	0	0
0.09	0.919838	391.769	-23.1856	-0.228248	0.006	-0.45157	0	-1.75745	0	-2.59306	228.062	32.3092	-0.204975	0.006	-0.773359	0	1.26469	0	0	0	0	0	0	0	0	0	0
0.1	1.08514	389.545	-22.6317	-0.228391	0.006	-0.45165	0	-1.76885	0	-3.26006	229.927	32.6961	-0.20337	0.006	-0.773618	0	1.29326	0	0	0	0	0	0	0	0	0	0
0.11	1.26796	386.973	-22.0641	-0.228572	0.006	-0.451741	0	-1.7745	0	-3.99721	231.794	33.1006	-0.201659	0.006	-0.773887	0	1.32724	0	0	0	0	0	0	0	0	0	0
0.12	1.46705	384.043	-21.4946	-0.228799	0.006	-0.45184	0	-1.77301	0	-4.79481	233.61	33.5207	-0.199871	0.006	-0.774167	0	1.36668	0	0	0	0	0	0	0	0	0	0
0.13	1.67912	380.754	-20.9356	-0.229078	0.006	-0.451945	0	-1.76311	0	-5.64085	235.312	33.9533	-0.198038	0.006	-0.774458	0	1.41107	0	0	0	0	0	0	0	0	0	0
0.14	1.89833	377.11	-20.3995	-0.229414	0.006	-0.452054	0	-1.74374	0	-6.52055	236.84	34.3937	-0.196197	0.006	-0.774759	0	1.45934	0	0	0	0	0	0	0	0	0	0
0.15	2.11605	373.13	-19.8986	-0.229811	0.006	-0.452165	0	-1.71416	0	-7.41649	238.136	34.8359	-0.194386	0.006	-0.775069	0	1.50999	0	0	0	0	0	0	0	0	0	0
0.16	2.32109	368.844	-19.4438	-0.230269	0.006	-0.452274	0	-1.67405	0	-8.31003	239.151	35.272	-0.19264	0.006	-0.775384	0	1.56136	0	0	0	0	0	0	0	0	0	0
0.17	2.50085	364.305	-19.0443	-0.23079	0.006	-0.452382	0	-1.62356	0	-9.18261	239.842	35.6913	-0.190994	0.006	-0.775699	0	1.61185	0	0	0	0	0	0	0	0	0	0
0.18	2.6427	359.581	-18.7069	-0.231371	0.006	-0.452488	0	-1.56334	0	-10.0166	240.172	36.0798	-0.189476	0.006	-0.776009	0	1.66006	0	0	0	0	0	0	0	0	0	0
0.19	2.73532	354.761	-18.4362	-0.232011	0.006	-0.452592	0	-1.49443	0	-10.7954	240.102	36.4196	-0.188108	0.006	-0.776308	0	1.70481	0	0	0	0	0	0	0	0	0	0
0.2	2.76975	349.951	-18.2355	-0.232707	0.006	-0.452694	0	-1.41805	0	-11.5024	239.592	36.6897	-0.186905	0.006	-0.776591	0	1.74534	0	0	0	0	0	0	0	0	0	0
0.21	2.73961	345.264	-18.1069	-0.233453	0.006	-0.452796	0	-1.33553	0	-12.1209	238.59	36.8674	-0.185871	0.006	-0.776851	0	1.78125	0	0	0	0	0	0	0	0	0	0
0.22	2.64191	340.818	-18.0522	-0.234246	0.006	-0.452899	0	-1.24826	0	-12.6337	237.041	36.9296	-0.185006	0.006	-0.777087	0	1.81249	0	0	0	0	0	0	0	0	0	0
0.23	2.47875	336.723	-18.0715	-0.23508	0.006	-0.453006	0	-1.15764	0	-13.0254	234.886	36.855	-0.184302	0.006	-0.777298	0	1.83939	0	0	0	0	0	0	0	0	0	0
0.24	2.25984	333.076	-18.1623	-0.235949	0.006	-0.453119	0	-1.06511	0	-13.2853	232.063	36.6248	-0.183748	0.006	-0.777484	0	1.86254	0	0	0	0	0	0	0	0	0	0
0.25	2.0035	329.963	-18.319	-0.236848	0.006	-0.453238	0	-0.972134	0	-13.4104	228.51	36.2243	-0.183329	0.006	-0.777646	0	1.88247	0	0	0	0	0	0	0	0	0	0
0.26	1.73429	327.456	-18.5345	-0.237774	0.006	-0.453365	0	-0.880245	0	-13.4068	224.165	35.643	-0.183022	0.006	-0.777787	0	1.89948	0	0	0	0	0	0	0	0	0	0
0.27	1.47922	325.617	-18.8025	-0.238723	0.006	-0.4535	0	-0.790921	0	-13.2902	218.971	34.8763	-0.182803	0.006	-0.777909	0	1.91358	0	0	0	0	0	0	0	0	0	0
0.28	1.26554	324.5	-19.1184	-0.239691	0.006	-0.453641	0	-0.705477	0	-13.0852	212.884	33.9253	-0.182638	0.006	-0.778013	0	1.9245	0	0	0	0	0	0	0	0	0	0
0.29	1.12039	324.146	-19.4796	-0.240675	0.006	-0.453786	0	-0.624983	0	-12.8237	205.882	32.7986	-0.182496	0.006	-0.778105	0	1.93173	0	0	0	0	0	0	0	0	0	0
0.3	1.07128	324.573	-19.8845	-0.241669	0.006	-0.453932	0	-0.550242	0	-12.5403	197.982	31.5127	-0.182341	0.006	-0.778187	0	1.93467	0	0	0	0	0	0	0	0	0	0
0.31	1.14416	325.77	-20.3311	-0.24267	0.006	-0.454078	0	-0.481808	0	-12.2679	189.245	30.0922	-0.182143	0.006	-0.778261	0	1.93262	0	0	0	0	0	0	0	0	0	0
0.32	1.35782	327.696	-20.8165	-0.243671	0.006	-0.45422	0	-0.419904	0	-12.0333	179.785	28.5688	-0.181872	0.006	-0.778325	0	1.92496	0	0	0	0	0	0	0	0	0	0
0.33	1.71711	330.284	-21.3367	-0.244662	0.006	-0.454356	0	-0.364526	0	-11.8539	169.761	26.9785	-0.181507	0.006	-0.778379	0	1.91133	0	0	0	0	0	0	0	0	0	0
0.34	2.20933	333.456	-21.8872	-0.245632	0.006	-0.454486	0	-0.315604	0	-11.7357	159.371	25.3592	-0.181036	0.006	-0.778416	0	1.89187	0	0	0	0	0	0	0	0	0	0
0.35	2.8047	337.135	-22.4653	-0.246565	0.006	-0.454609	0	-0.27308	0	-11.6725	148.836	23.7491	-0.180457	0.006	-0.778432	0	1.86694	0	0	0	0	0	0	0	0	0	0
0.36	3.46066	341.266	-23.0705	-0.247446	0.006	-0.454722	0	-0.237008	0	-11.6472	138.384	22.1851	-0.17978	0.006	-0.778417	0	1.83692	0	0	0	0	0	0	0	0	0	0
0.37	4.13254	345.818	-23.7048	-0.248259	0.006	-0.454824	0	-0.207603	0	-11.6343	128.236	20.7012	-0.179025	0.006	-0.778365	0	1.80247	0	0	0	0	0	0	0	0	0	0
0.38	4.78542	350.786	-24.3712	-0.248993	0.006	-0.454914	0	-0.185299	0	-11.6036	118.586	19.3252	-0.178226	0.006	-0.778267	0	1.76452	0	0	0	0	0	0	0	0	0	0
0.39	5.39945	356.178	-25.073	-0.249645	0.006	-0.454989	0	-0.170601	0	-11.5256	109.594	18.0772	-0.17743	0.006	-0.778115	0	1.72422	0	0	0	0	0	0	0	0	0	0
0.4	5.96721	362	-25.8118	-0.250212	0.006	-0.455049	0	-0.163734	0	-11.3774	101.39	16.9709	-0.176702	0.006	-0.777901	0	1.68303	0	0	0	0	0	0	0	0	0	0
0.41	6.48749	368.238	-26.5848	-0.250697	0.006	-0.455094	0	-0.164359	0	-11.1448	94.0742	16.0155	-0.176125	0.006	-0.777619	0	1.64264	0	0	0	0	0	0	0	0	0	0
0.42	6.96304	374.856	-27.3816	-0.251107	0.006	-0.455127	0	-0.171398	0	-10.8208	87.7192	15.2166	-0.175802	0.006	-0.777266	0	1.60492	0	0	0	0	0	0	0	0	0	0
0.43	7.40024	381.802	-28.184	-0.251446	0.006	-0.455151	0	-0.183097	0	-10.4037	82.3743	14.5762	-0.175841	0.006	-0.776844	0	1.57171	0	0	0	0	0	0	0	0	0	0
0.44	7.80452	389.033	-28.9694	-0.251724	0.006	-0.455171	0	-0.197513	0	-9.89482	78.0631	14.0924	-0.176349	0.006	-0.776363	0	1.54459	0	0	0	0	0	0	0	0	0	0
0.45	8.17823	396.533	-29.7149	-0.251947	0.006	-0.455192	0	-0.213078	0	-9.29775	74.7834	13.7591	-0.177414	0.006	-0.775836	0	1.52467	0	0	0	0	0	0	0	0	0	0
0.46	8.52093	404.311	-30.4022	-0.252122	0.006	-0.455218	0	-0.228733	0	-8.61818	72.5067	13.5668	-0.179088	0.006	-0.775276	0	1.51253	0	0	0	0	0	0	0	0	0	0
0.47	8.83008	412.383	-31.0204	-0.252257	0.006	-0.455251	0	-0.243798	0	-7.86452	71.1792	13.5021	-0.181367	0.006	-0.774692	0	1.50807	0	0	0	0	0	0	0	0	0	0
0.48	9.09923	420.747	-31.5659	-0.252353	0.006	-0.455293	0	-0.257958	0	-7.04904	70.724	13.5466	-0.184186	0.006	-0.774086	0	1.51074	0	0	0	0	0	0	0	0	0	0
0.49	9.31709	429.369	-32.0405	-0.252414	0.006	-0.455341	0	-0.271291	0	-6.18855	71.044	13.6764	-0.187428	0.006	-0.773453	0	1.5196	0	0	0	0	0	0	0	0	0	0
0.5	9.46663	438.171	-32.4476	-0.252438	0.006	-0.455397	0	-0.284143	0	-5.30433	72.0238	13.8636	-0.190943	0.006	-0.772788	0	1.53349	0	0	0	0	0	0	0	0	0	0
0.51	9.5299	447.037	-32.7877	-0.252426	0.006	-0.455457	0	-0.296961	0	-4.42138	73.533	14.0787	-0.194569	0.006	-0.772083	0	1.55122	0	0	0	0	0	0	0	0	0	0
0.52	9.49467	455.826	-33.0544	-0.252376	0.006	-0.455523	0	-0.310075	0	-3.56781	75.4304	14.2935	-0.198161	0.006	-0.771334	0	1.57149	0	0	0	0	0	0	0	0	0	0
0.53	9.36125	464.386	-33.2335	-0.252291	0.006	-0.455596	0	-0.323613	0	-2.77306	77.5743	14.4845	-0.201594	0.006	-0.770544	0	1.59295	0	0	0	0	0	0	0	0	0	0
0.54	9.14611	472.562	-33.3047	-0.252172	0.006	-0.455678	0	-0.337742	0	-2.06284	79.8384	14.6332	-0.204782	0.006	-0.769719	0	1.61432	0	0	0	0	0	0	0	0	0	0
0.55	8.87623	480.23	-33.2479	-0.252022	0.006	-0.455774	0	-0.352667	0	-1.45373	82.1221	14.7267	-0.20768	0.006	-0.768868	0	1.63464	0	0	0	0	0	0	0	0	0	0
0.56	8.58067	487.299	-33.0471	-0.251844	0.006	-0.455884	0	-0.36861	0	-0.950593	84.3542	14.7581	-0.210277	0.006	-0.767998	0	1.6533	0	0	0	0	0	0	0	0	0	0
0.57	8.28564	493.711	-32.6974	-0.251638	0.006	-0.456009	0	-0.386	0	-0.546778	86.493	14.7271	-0.212588	0.006	-0.767114	0	1.66987	0	0	0	0	0	0	0	0	0	0
0.58	8.01301	499.428	-32.2106	-0.251404	0.006	-0.456147	0	-0.405534	0	-0.226763	88.5251	14.64	-0.214641	0.006	-0.766223	0	1.68405	0	0	0	0	0	0	0	0	0	0
0.59	7.77716	504.425	-31.6154	-0.251139	0.006	-0.456292	0	-0.428049	0	0.0303448	90.4612	14.5086	-0.216474	0.006	-0.765339	0	1.69562	0	0	0	0	0	0	0	0	0	0
0.6	7.58208	508.687	-30.9532	-0.250839	0.006	-0.456436	0	-0.454456	0	0.246846	92.3314	14.348	-0.21812	0.006	-0.764475	0	1.70442	0	0	0	0	0	0	0	0	0	0
0.61	7.42187	512.199	-30.2715	-0.250499	0.006	-0.45657	0	-0.485551	0	0.443528	94.1793	14.175	-0.219609	0.006	-0.763644	0	1.71058	0	0	0	0	0	0	0	0	0	0
0.62	7.2854	514.963	-29.6175	-0.250114	0.006	-0.456687	0	-0.522104	0	0.636821	96.0561	14.0056	-0.220963	0.006	-0.762857	0	1.71453	0	0	0	0	0	0	0	0	0	0
0.63	7.15795	517.008	-29.0295	-0.249681	0.006	-0.45678	0	-0.564553	0	0.836708	98.0147	13.8547	-0.222197	0.006	-0.762125	0	1.71711	0	0	0	0	0	0	0	0	0	0
0.64	7.02235	518.387	-28.5283	-0.249199	0.006	-0.456848	0	-0.612564	0	1.04542	100.103	13.7338	-0.223313	0.006	-0.761457	0	1.71945	0	0	0	0	0	0	0	0	0	0
0.65	6.86567	519.179	-28.1124	-0.248671	0.006	-0.456891	0	-0.665232	0	1.25646	102.358	13.6507	-0.224304	0.006	-0.760859	0	1.7229	0	0	0	0	0	0	0	0	0	0
0.66	6.6854	519.467	-27.7616	-0.248105	0.006	-0.456914	0	-0.721529	0	1.45503	104.797	13.6079	-0.225153	0.006	-0.760337	0	1.72894	0	0	0	0	0	0	0	0	0	0
0.67	6.48955	519.327	-27.4435	-0.247509	0.006	-0.456924	0	-0.780454	0	1.62015	107.42	13.6032	-0.22584	0.006	-0.759893	0	1.73902	0	0	0	0	0	0	0	0	0	0
0.68	6.29229	518.828	-27.1218	-0.246894	0.006	-0.456926	0	-0.841125	0	1.72854	110.209	13.6308	-0.226344	0.006	-0.759526	0	1.75455	0	0	0	0	0	0	0	0	0	0
0.69	6.1073	518.034	-26.7625	-0.246269	0.006	-0.456925	0	-0.902952	0	1.7592	113.137	13.6825	-0.226653	0.006	-0.759233	0	1.7767	0	0	0	0	0	0	0	0	0	0
0.7	5.94047	517.01	-26.3399	-0.24564	0.006	-0.456928	0	-0.965852	0	1.69733	116.173	13.7503	-0.226771	0.006	-0.759008	0	1.80657	0	0	0	0	0	0	0	0	0	0
0.71	5.7869	515.822	-25.8401	-0.24501	0.006	-0.456935	0	-1.0303	0	1.5356	119.291	13.827	-0.226709	0.006	-0.758845	0	1.84508	0	0	0	0	0	0	0	0	0	0
0.72	5.63487	514.539	-25.2615	-0.244383	0.006	-0.456949	0	-1.0971	0	1.27317	122.469	13.9069	-0.226488	0.006	-0.758739	0	1.89311	0	0	0	0	0	0	0	0	0	0
0.73	5.47136	513.226	-24.6122	-0.243759	0.006	-0.45697	0	-1.16714	0	0.913575	125.69	13.9851	-0.226131	0.006	-0.758684	0	1.9516	0	0	0	0	0	0	0	0	0	0
0.74	5.28739	511.944	-23.9055	-0.243139	0.006	-0.456995	0	-1.2411	0	0.463539	128.937	14.0576	-0.225662	0.006	-0.758674	0	2.02145	0	0	0	0	0	0	0	0	0	0
0.75	5.08059	510.745	-23.1566	-0.242527	0.006	-0.457024	0	-1.31948	0	-0.0678214	132.194	14.1203	-0.225105	0.006	-0.758705	0	2.10358	0	0	0	0	0	0	0	0	0	0
0.76	4.85398	509.674	-22.3787	-0.241928	0.006	-0.457054	0	-1.40265	0	-0.669445	135.446	14.1703	-0.224485	0.006	-0.758771	0	2.19866	0	0	0	0	0	0	0	0	0	0
0.77	4.61132	508.764	-21.5822	-0.241345	0.006	-0.457087	0	-1.49112	0	-1.32858	138.674	14.2059	-0.223825	0.006	-0.75887	0	2.307	0	0	0	0	0	0	0	0	0	0
0.78	4.35191	508.039	-20.7752	-0.240784	0.006	-0.45712	0	-1.58554	0	-2.03077	141.861	14.2269	-0.223146	0.006	-0.759001	0	2.42848	0	0	0	0	0	0	0	0	0	0
0.79	4.06755	507.518	-19.9623	-0.240247	0.006	-0.457156	0	-1.6868	0	-2.76012	144.994	14.2345	-0.222467	0.006	-0.759162	0	2.56233	0	0	0	0	0	0	0	0	0	0
